<mxfile host="app.diagrams.net" agent="Mozilla/5.0 (Windows NT 10.0; Win64; x64) AppleWebKit/537.36 (KHTML, like Gecko) Chrome/139.0.0.0 Safari/537.36 Edg/139.0.0.0" version="28.1.0">
  <diagram name="第 1 页" id="fW5XrG-7Elsu4b_n7-FH">
    <mxGraphModel dx="1992" dy="773" grid="1" gridSize="10" guides="1" tooltips="1" connect="1" arrows="1" fold="1" page="1" pageScale="1" pageWidth="827" pageHeight="1169" math="0" shadow="0">
      <root>
        <mxCell id="0" />
        <mxCell id="1" parent="0" />
        <mxCell id="Rp3EMk-Xtz92tAUW0NJ6-17" value="" style="edgeStyle=orthogonalEdgeStyle;shape=flexArrow;rounded=0;orthogonalLoop=1;jettySize=auto;html=1;" parent="1" source="Rp3EMk-Xtz92tAUW0NJ6-1" target="Rp3EMk-Xtz92tAUW0NJ6-14" edge="1">
          <mxGeometry relative="1" as="geometry" />
        </mxCell>
        <mxCell id="Rp3EMk-Xtz92tAUW0NJ6-1" value="&lt;font style=&quot;font-size: 20px;&quot;&gt;NewAoe帝国时代Qt项目&lt;/font&gt;" style="rounded=1;whiteSpace=wrap;html=1;" parent="1" vertex="1">
          <mxGeometry x="250" y="10" width="340" height="30" as="geometry" />
        </mxCell>
        <mxCell id="Rp3EMk-Xtz92tAUW0NJ6-7" value="&lt;font style=&quot;font-size: 18px;&quot;&gt;利用vector容器创建村民列表，&lt;/font&gt;&lt;div&gt;&lt;font style=&quot;font-size: 18px;&quot;&gt;将执行不同任务的村民存储至对应vector列表中&lt;/font&gt;&lt;/div&gt;" style="whiteSpace=wrap;html=1;rounded=1;" parent="1" vertex="1">
          <mxGeometry x="230" y="150" width="380" height="50" as="geometry" />
        </mxCell>
        <mxCell id="Rp3EMk-Xtz92tAUW0NJ6-9" style="edgeStyle=orthogonalEdgeStyle;shape=flexArrow;rounded=0;orthogonalLoop=1;jettySize=auto;html=1;exitX=0.5;exitY=1;exitDx=0;exitDy=0;" parent="1" source="Rp3EMk-Xtz92tAUW0NJ6-7" target="Rp3EMk-Xtz92tAUW0NJ6-7" edge="1">
          <mxGeometry relative="1" as="geometry" />
        </mxCell>
        <mxCell id="Rp3EMk-Xtz92tAUW0NJ6-11" value="&lt;font style=&quot;font-size: 18px;&quot;&gt;利用map容器建立映射关系，&lt;/font&gt;&lt;div&gt;&lt;font style=&quot;font-size: 18px;&quot;&gt;方便程序根据SN查找相关数据&lt;/font&gt;&lt;/div&gt;" style="rounded=1;whiteSpace=wrap;html=1;" parent="1" vertex="1">
          <mxGeometry x="-80" y="150" width="270" height="50" as="geometry" />
        </mxCell>
        <mxCell id="Rp3EMk-Xtz92tAUW0NJ6-12" value="&lt;font style=&quot;font-size: 18px;&quot;&gt;创建实时资源地图，&lt;/font&gt;&lt;div&gt;&lt;font style=&quot;font-size: 18px;&quot;&gt;将各种资源用相应符号表示&lt;/font&gt;&lt;/div&gt;" style="rounded=1;whiteSpace=wrap;html=1;" parent="1" vertex="1">
          <mxGeometry x="670" y="150" width="250" height="50" as="geometry" />
        </mxCell>
        <mxCell id="Rp3EMk-Xtz92tAUW0NJ6-14" value="&lt;font style=&quot;font-size: 18px;&quot;&gt;利用processData()函数AI接口逐帧调用特性&lt;/font&gt;" style="rounded=1;whiteSpace=wrap;html=1;" parent="1" vertex="1">
          <mxGeometry x="220" y="70" width="400" height="30" as="geometry" />
        </mxCell>
        <mxCell id="Rp3EMk-Xtz92tAUW0NJ6-22" value="" style="strokeWidth=2;html=1;shape=mxgraph.flowchart.annotation_2;align=left;labelPosition=right;pointerEvents=1;rotation=90;" parent="1" vertex="1">
          <mxGeometry x="403.13" y="-254.37" width="45" height="758.75" as="geometry" />
        </mxCell>
        <mxCell id="Rp3EMk-Xtz92tAUW0NJ6-24" value="" style="strokeWidth=2;html=1;shape=mxgraph.flowchart.annotation_2;align=left;labelPosition=right;pointerEvents=1;rotation=-90;" parent="1" vertex="1">
          <mxGeometry x="403.75" y="-156.25" width="45" height="755" as="geometry" />
        </mxCell>
        <mxCell id="Rp3EMk-Xtz92tAUW0NJ6-29" value="&lt;font style=&quot;font-size: 18px;&quot;&gt;利用switch-case语句进行阶段划分，从而实现分阶段策略&lt;/font&gt;" style="rounded=1;whiteSpace=wrap;html=1;" parent="1" vertex="1">
          <mxGeometry x="200" y="240" width="470" height="40" as="geometry" />
        </mxCell>
        <mxCell id="Rp3EMk-Xtz92tAUW0NJ6-36" value="" style="edgeStyle=orthogonalEdgeStyle;shape=flexArrow;rounded=0;orthogonalLoop=1;jettySize=auto;html=1;" parent="1" source="Rp3EMk-Xtz92tAUW0NJ6-30" target="Rp3EMk-Xtz92tAUW0NJ6-35" edge="1">
          <mxGeometry relative="1" as="geometry" />
        </mxCell>
        <mxCell id="Rp3EMk-Xtz92tAUW0NJ6-30" value="&lt;font style=&quot;font-size: 19px;&quot;&gt;阶段一stage0&lt;/font&gt;" style="rounded=1;whiteSpace=wrap;html=1;" parent="1" vertex="1">
          <mxGeometry x="-270" y="367.5" width="190" height="40" as="geometry" />
        </mxCell>
        <mxCell id="Rp3EMk-Xtz92tAUW0NJ6-57" value="" style="edgeStyle=orthogonalEdgeStyle;shape=flexArrow;rounded=0;orthogonalLoop=1;jettySize=auto;html=1;" parent="1" source="Rp3EMk-Xtz92tAUW0NJ6-31" target="Rp3EMk-Xtz92tAUW0NJ6-56" edge="1">
          <mxGeometry relative="1" as="geometry" />
        </mxCell>
        <mxCell id="Rp3EMk-Xtz92tAUW0NJ6-31" value="&lt;font style=&quot;font-size: 19px;&quot;&gt;阶段二stage1&lt;/font&gt;" style="rounded=1;whiteSpace=wrap;html=1;" parent="1" vertex="1">
          <mxGeometry x="150" y="367.5" width="180" height="40" as="geometry" />
        </mxCell>
        <mxCell id="Rp3EMk-Xtz92tAUW0NJ6-32" value="&lt;font style=&quot;font-size: 19px;&quot;&gt;阶段三stage2&lt;/font&gt;" style="rounded=1;whiteSpace=wrap;html=1;" parent="1" vertex="1">
          <mxGeometry x="590" y="367.5" width="180" height="40" as="geometry" />
        </mxCell>
        <mxCell id="Rp3EMk-Xtz92tAUW0NJ6-89" value="" style="edgeStyle=orthogonalEdgeStyle;shape=flexArrow;rounded=0;orthogonalLoop=1;jettySize=auto;html=1;" parent="1" source="Rp3EMk-Xtz92tAUW0NJ6-33" target="Rp3EMk-Xtz92tAUW0NJ6-88" edge="1">
          <mxGeometry relative="1" as="geometry" />
        </mxCell>
        <mxCell id="Rp3EMk-Xtz92tAUW0NJ6-33" value="&lt;font style=&quot;font-size: 19px;&quot;&gt;阶段四stage3&lt;/font&gt;" style="rounded=1;whiteSpace=wrap;html=1;" parent="1" vertex="1">
          <mxGeometry x="940" y="367.5" width="170" height="40" as="geometry" />
        </mxCell>
        <mxCell id="Rp3EMk-Xtz92tAUW0NJ6-34" value="" style="strokeWidth=2;html=1;shape=mxgraph.flowchart.annotation_2;align=left;labelPosition=right;pointerEvents=1;rotation=90;" parent="1" vertex="1">
          <mxGeometry x="382.54" y="-276.02" width="82.78" height="1199.81" as="geometry" />
        </mxCell>
        <mxCell id="Rp3EMk-Xtz92tAUW0NJ6-38" value="" style="edgeStyle=orthogonalEdgeStyle;shape=flexArrow;rounded=0;orthogonalLoop=1;jettySize=auto;html=1;" parent="1" source="Rp3EMk-Xtz92tAUW0NJ6-35" target="Rp3EMk-Xtz92tAUW0NJ6-37" edge="1">
          <mxGeometry relative="1" as="geometry" />
        </mxCell>
        <mxCell id="Rp3EMk-Xtz92tAUW0NJ6-35" value="&lt;font style=&quot;font-size: 19px;&quot;&gt;对初始四位村民执assignFirstTask函数&lt;/font&gt;&lt;div&gt;&lt;span style=&quot;font-size: 19px; background-color: transparent; color: light-dark(rgb(0, 0, 0), rgb(255, 255, 255));&quot;&gt;对其进行初始的任务分配&lt;/span&gt;&lt;/div&gt;" style="rounded=1;whiteSpace=wrap;html=1;" parent="1" vertex="1">
          <mxGeometry x="-340" y="450" width="330" height="72.5" as="geometry" />
        </mxCell>
        <mxCell id="Rp3EMk-Xtz92tAUW0NJ6-40" value="" style="edgeStyle=orthogonalEdgeStyle;shape=flexArrow;rounded=0;orthogonalLoop=1;jettySize=auto;html=1;" parent="1" source="Rp3EMk-Xtz92tAUW0NJ6-37" target="Rp3EMk-Xtz92tAUW0NJ6-39" edge="1">
          <mxGeometry relative="1" as="geometry" />
        </mxCell>
        <mxCell id="Rp3EMk-Xtz92tAUW0NJ6-37" value="&lt;font style=&quot;font-size: 18px;&quot;&gt;建造房屋、船坞；市镇中心生产人口，新增人口去砍树、打猎&lt;/font&gt;" style="rounded=1;whiteSpace=wrap;html=1;" parent="1" vertex="1">
          <mxGeometry x="-340" y="560" width="330" height="65" as="geometry" />
        </mxCell>
        <mxCell id="Rp3EMk-Xtz92tAUW0NJ6-42" value="" style="edgeStyle=orthogonalEdgeStyle;shape=flexArrow;rounded=0;orthogonalLoop=1;jettySize=auto;html=1;" parent="1" source="Rp3EMk-Xtz92tAUW0NJ6-39" target="Rp3EMk-Xtz92tAUW0NJ6-41" edge="1">
          <mxGeometry relative="1" as="geometry" />
        </mxCell>
        <mxCell id="Rp3EMk-Xtz92tAUW0NJ6-39" value="&lt;font style=&quot;font-size: 17px;&quot;&gt;船坞生产渔船，渔船进行捕鱼，&lt;/font&gt;&lt;div&gt;&lt;font style=&quot;font-size: 17px;&quot;&gt;&lt;font style=&quot;&quot;&gt;&lt;span style=&quot;background-color: transparent; color: light-dark(rgb(0, 0, 0), rgb(255, 255, 255));&quot;&gt;近岸渔场耗尽后&lt;/span&gt;&lt;/font&gt;&lt;span style=&quot;background-color: transparent; color: light-dark(rgb(0, 0, 0), rgb(255, 255, 255));&quot;&gt;渔船在近岸海域探索&lt;/span&gt;&lt;/font&gt;&lt;/div&gt;" style="rounded=1;whiteSpace=wrap;html=1;" parent="1" vertex="1">
          <mxGeometry x="-335" y="670" width="320" height="60" as="geometry" />
        </mxCell>
        <mxCell id="Rp3EMk-Xtz92tAUW0NJ6-45" value="" style="edgeStyle=orthogonalEdgeStyle;shape=flexArrow;rounded=0;orthogonalLoop=1;jettySize=auto;html=1;" parent="1" source="Rp3EMk-Xtz92tAUW0NJ6-41" target="Rp3EMk-Xtz92tAUW0NJ6-43" edge="1">
          <mxGeometry relative="1" as="geometry" />
        </mxCell>
        <mxCell id="Rp3EMk-Xtz92tAUW0NJ6-41" value="&lt;font style=&quot;font-size: 19px;&quot;&gt;不断打猎、伐木，进行资源累计&lt;/font&gt;" style="rounded=1;whiteSpace=wrap;html=1;" parent="1" vertex="1">
          <mxGeometry x="-340" y="770" width="330" height="60" as="geometry" />
        </mxCell>
        <mxCell id="Rp3EMk-Xtz92tAUW0NJ6-44" value="" style="edgeStyle=orthogonalEdgeStyle;shape=flexArrow;rounded=0;orthogonalLoop=1;jettySize=auto;html=1;" parent="1" source="Rp3EMk-Xtz92tAUW0NJ6-43" target="Rp3EMk-Xtz92tAUW0NJ6-31" edge="1">
          <mxGeometry relative="1" as="geometry">
            <Array as="points">
              <mxPoint x="50" y="930" />
              <mxPoint x="50" y="388" />
            </Array>
          </mxGeometry>
        </mxCell>
        <mxCell id="Rp3EMk-Xtz92tAUW0NJ6-46" value="&lt;font style=&quot;font-size: 26px;&quot;&gt;是&lt;/font&gt;" style="edgeLabel;html=1;align=center;verticalAlign=middle;resizable=0;points=[];" parent="Rp3EMk-Xtz92tAUW0NJ6-44" vertex="1" connectable="0">
          <mxGeometry x="-0.9028" y="2" relative="1" as="geometry">
            <mxPoint x="10" y="2" as="offset" />
          </mxGeometry>
        </mxCell>
        <mxCell id="Rp3EMk-Xtz92tAUW0NJ6-54" value="" style="edgeStyle=orthogonalEdgeStyle;shape=flexArrow;rounded=0;orthogonalLoop=1;jettySize=auto;html=1;entryX=0;entryY=0.5;entryDx=0;entryDy=0;" parent="1" source="Rp3EMk-Xtz92tAUW0NJ6-43" target="Rp3EMk-Xtz92tAUW0NJ6-41" edge="1">
          <mxGeometry relative="1" as="geometry">
            <mxPoint x="-420" y="800" as="targetPoint" />
            <Array as="points">
              <mxPoint x="-420" y="930" />
              <mxPoint x="-420" y="800" />
            </Array>
          </mxGeometry>
        </mxCell>
        <mxCell id="Rp3EMk-Xtz92tAUW0NJ6-55" value="&lt;font style=&quot;font-size: 26px;&quot;&gt;否&lt;/font&gt;" style="edgeLabel;html=1;align=center;verticalAlign=middle;resizable=0;points=[];" parent="Rp3EMk-Xtz92tAUW0NJ6-54" vertex="1" connectable="0">
          <mxGeometry x="-0.7764" y="3" relative="1" as="geometry">
            <mxPoint y="-3" as="offset" />
          </mxGeometry>
        </mxCell>
        <mxCell id="Rp3EMk-Xtz92tAUW0NJ6-43" value="&lt;font style=&quot;font-size: 18px;&quot;&gt;判断当前食物是否≥500&lt;/font&gt;" style="rhombus;whiteSpace=wrap;html=1;" parent="1" vertex="1">
          <mxGeometry x="-305" y="890" width="260" height="80" as="geometry" />
        </mxCell>
        <mxCell id="Rp3EMk-Xtz92tAUW0NJ6-56" value="&lt;font style=&quot;font-size: 19px;&quot;&gt;建造谷仓、市场、农田等建筑；&lt;/font&gt;&lt;div&gt;&lt;font style=&quot;font-size: 19px;&quot;&gt;继续建造房屋以提高人口上限；&lt;/font&gt;&lt;/div&gt;&lt;div&gt;&lt;font style=&quot;font-size: 19px;&quot;&gt;村民继续打猎、伐木，继续积累资源&lt;/font&gt;&lt;/div&gt;" style="rounded=1;whiteSpace=wrap;html=1;" parent="1" vertex="1">
          <mxGeometry x="85" y="456.25" width="310" height="123.75" as="geometry" />
        </mxCell>
        <mxCell id="Rp3EMk-Xtz92tAUW0NJ6-58" value="" style="strokeWidth=2;html=1;shape=mxgraph.flowchart.annotation_2;align=left;labelPosition=right;pointerEvents=1;rotation=90;" parent="1" vertex="1">
          <mxGeometry x="219.38" y="484.38" width="50" height="248.75" as="geometry" />
        </mxCell>
        <mxCell id="Rp3EMk-Xtz92tAUW0NJ6-59" value="&lt;font style=&quot;font-size: 20px;&quot;&gt;仓库以及市场升级有关技术，解锁新科技&lt;/font&gt;" style="rounded=1;whiteSpace=wrap;html=1;" parent="1" vertex="1">
          <mxGeometry x="70" y="640" width="97.5" height="140" as="geometry" />
        </mxCell>
        <mxCell id="Rp3EMk-Xtz92tAUW0NJ6-62" value="" style="edgeStyle=orthogonalEdgeStyle;shape=flexArrow;rounded=0;orthogonalLoop=1;jettySize=auto;html=1;" parent="1" source="Rp3EMk-Xtz92tAUW0NJ6-60" target="Rp3EMk-Xtz92tAUW0NJ6-61" edge="1">
          <mxGeometry relative="1" as="geometry" />
        </mxCell>
        <mxCell id="Rp3EMk-Xtz92tAUW0NJ6-60" value="&lt;font style=&quot;font-size: 20px;&quot;&gt;船坞开始建造战船，打造我方海军&lt;/font&gt;" style="rounded=1;whiteSpace=wrap;html=1;" parent="1" vertex="1">
          <mxGeometry x="314" y="640" width="100" height="140" as="geometry" />
        </mxCell>
        <mxCell id="Rp3EMk-Xtz92tAUW0NJ6-64" value="" style="edgeStyle=orthogonalEdgeStyle;shape=flexArrow;rounded=0;orthogonalLoop=1;jettySize=auto;html=1;entryX=0;entryY=0.5;entryDx=0;entryDy=0;" parent="1" source="Rp3EMk-Xtz92tAUW0NJ6-61" target="Rp3EMk-Xtz92tAUW0NJ6-60" edge="1">
          <mxGeometry relative="1" as="geometry">
            <mxPoint x="205.25000000000023" y="875" as="targetPoint" />
            <Array as="points">
              <mxPoint x="220" y="875" />
              <mxPoint x="220" y="710" />
            </Array>
          </mxGeometry>
        </mxCell>
        <mxCell id="Rp3EMk-Xtz92tAUW0NJ6-65" value="&lt;font style=&quot;font-size: 22px;&quot;&gt;否&lt;/font&gt;" style="edgeLabel;html=1;align=center;verticalAlign=middle;resizable=0;points=[];" parent="Rp3EMk-Xtz92tAUW0NJ6-64" vertex="1" connectable="0">
          <mxGeometry x="-0.8069" y="-3" relative="1" as="geometry">
            <mxPoint as="offset" />
          </mxGeometry>
        </mxCell>
        <mxCell id="Rp3EMk-Xtz92tAUW0NJ6-68" value="" style="edgeStyle=orthogonalEdgeStyle;shape=flexArrow;rounded=0;orthogonalLoop=1;jettySize=auto;html=1;entryX=0.5;entryY=1;entryDx=0;entryDy=0;" parent="1" source="Rp3EMk-Xtz92tAUW0NJ6-61" target="Rp3EMk-Xtz92tAUW0NJ6-66" edge="1">
          <mxGeometry relative="1" as="geometry">
            <mxPoint x="522.75" y="875" as="targetPoint" />
          </mxGeometry>
        </mxCell>
        <mxCell id="Rp3EMk-Xtz92tAUW0NJ6-69" value="&lt;font style=&quot;font-size: 22px;&quot;&gt;是&lt;/font&gt;" style="edgeLabel;html=1;align=center;verticalAlign=middle;resizable=0;points=[];" parent="Rp3EMk-Xtz92tAUW0NJ6-68" vertex="1" connectable="0">
          <mxGeometry x="-0.7466" y="-5" relative="1" as="geometry">
            <mxPoint x="3" y="-5" as="offset" />
          </mxGeometry>
        </mxCell>
        <mxCell id="Rp3EMk-Xtz92tAUW0NJ6-61" value="&lt;font style=&quot;font-size: 16px;&quot;&gt;判断战船数量&lt;/font&gt;&lt;div&gt;&lt;font style=&quot;font-size: 16px;&quot;&gt;是否达到12&lt;/font&gt;&lt;/div&gt;" style="rhombus;whiteSpace=wrap;html=1;" parent="1" vertex="1">
          <mxGeometry x="285.25" y="820" width="157.5" height="110" as="geometry" />
        </mxCell>
        <mxCell id="Rp3EMk-Xtz92tAUW0NJ6-71" value="" style="edgeStyle=orthogonalEdgeStyle;shape=flexArrow;rounded=0;orthogonalLoop=1;jettySize=auto;html=1;entryX=0;entryY=0.25;entryDx=0;entryDy=0;width=15;endSize=5.3500000000000005;" parent="1" source="Rp3EMk-Xtz92tAUW0NJ6-66" target="Rp3EMk-Xtz92tAUW0NJ6-32" edge="1">
          <mxGeometry relative="1" as="geometry">
            <mxPoint x="491.25" y="490" as="targetPoint" />
            <Array as="points">
              <mxPoint x="491" y="378" />
            </Array>
          </mxGeometry>
        </mxCell>
        <mxCell id="Rp3EMk-Xtz92tAUW0NJ6-66" value="&lt;font style=&quot;font-size: 19px;&quot;&gt;战&lt;/font&gt;&lt;div&gt;&lt;font style=&quot;font-size: 19px;&quot;&gt;船&lt;/font&gt;&lt;div&gt;&lt;font style=&quot;font-size: 19px;&quot;&gt;出&lt;/font&gt;&lt;/div&gt;&lt;div&gt;&lt;font style=&quot;font-size: 19px;&quot;&gt;海&lt;/font&gt;&lt;/div&gt;&lt;div&gt;&lt;font style=&quot;font-size: 19px;&quot;&gt;战&lt;/font&gt;&lt;/div&gt;&lt;div&gt;&lt;font style=&quot;font-size: 19px;&quot;&gt;斗&lt;/font&gt;&lt;/div&gt;&lt;/div&gt;" style="rounded=1;whiteSpace=wrap;html=1;" parent="1" vertex="1">
          <mxGeometry x="470" y="570" width="42.5" height="160" as="geometry" />
        </mxCell>
        <mxCell id="Rp3EMk-Xtz92tAUW0NJ6-72" value="&lt;font style=&quot;font-size: 19px;&quot;&gt;建造兵营、&lt;/font&gt;&lt;div&gt;&lt;font style=&quot;font-size: 19px;&quot;&gt;马厩、靶场&lt;/font&gt;&lt;div&gt;&lt;font style=&quot;font-size: 19px;&quot;&gt;等建筑；&lt;/font&gt;&lt;div&gt;&lt;font style=&quot;font-size: 19px;&quot;&gt;生产斧头兵、弓箭兵、&lt;/font&gt;&lt;span style=&quot;font-size: 19px; background-color: transparent; color: light-dark(rgb(0, 0, 0), rgb(255, 255, 255));&quot;&gt;侦察骑兵；&lt;/span&gt;&lt;/div&gt;&lt;div&gt;&lt;font style=&quot;font-size: 19px;&quot;&gt;&lt;font style=&quot;&quot;&gt;仓库对军队护甲&lt;/font&gt;&lt;span style=&quot;background-color: transparent; color: light-dark(rgb(0, 0, 0), rgb(255, 255, 255));&quot;&gt;进行升级&lt;/span&gt;&lt;/font&gt;&lt;/div&gt;&lt;/div&gt;&lt;/div&gt;" style="rounded=1;whiteSpace=wrap;html=1;" parent="1" vertex="1">
          <mxGeometry x="530.32" y="460" width="130" height="250" as="geometry" />
        </mxCell>
        <mxCell id="Rp3EMk-Xtz92tAUW0NJ6-74" value="" style="strokeWidth=2;html=1;shape=mxgraph.flowchart.annotation_2;align=left;labelPosition=right;pointerEvents=1;rotation=91;" parent="1" vertex="1">
          <mxGeometry x="654.63" y="344.21" width="50" height="180.5" as="geometry" />
        </mxCell>
        <mxCell id="Rp3EMk-Xtz92tAUW0NJ6-77" value="" style="edgeStyle=orthogonalEdgeStyle;shape=flexArrow;rounded=0;orthogonalLoop=1;jettySize=auto;html=1;" parent="1" source="Rp3EMk-Xtz92tAUW0NJ6-75" target="Rp3EMk-Xtz92tAUW0NJ6-76" edge="1">
          <mxGeometry relative="1" as="geometry" />
        </mxCell>
        <mxCell id="Rp3EMk-Xtz92tAUW0NJ6-75" value="&lt;font style=&quot;font-size: 20px;&quot;&gt;船坞建造&lt;/font&gt;&lt;div&gt;&lt;font style=&quot;font-size: 20px;&quot;&gt;运输船&lt;/font&gt;&lt;/div&gt;" style="rounded=1;whiteSpace=wrap;html=1;" parent="1" vertex="1">
          <mxGeometry x="717" y="462.5" width="110" height="60" as="geometry" />
        </mxCell>
        <mxCell id="Rp3EMk-Xtz92tAUW0NJ6-80" value="" style="edgeStyle=orthogonalEdgeStyle;shape=flexArrow;rounded=0;orthogonalLoop=1;jettySize=auto;html=1;" parent="1" source="Rp3EMk-Xtz92tAUW0NJ6-76" target="Rp3EMk-Xtz92tAUW0NJ6-79" edge="1">
          <mxGeometry relative="1" as="geometry" />
        </mxCell>
        <mxCell id="Rp3EMk-Xtz92tAUW0NJ6-76" value="&lt;font style=&quot;font-size: 17px;&quot;&gt;运输船靠岸&lt;/font&gt;&lt;div&gt;&lt;font style=&quot;font-size: 17px;&quot;&gt;军队登船&lt;/font&gt;&lt;/div&gt;" style="rounded=1;whiteSpace=wrap;html=1;" parent="1" vertex="1">
          <mxGeometry x="715.5" y="562.5" width="113" height="60" as="geometry" />
        </mxCell>
        <mxCell id="Rp3EMk-Xtz92tAUW0NJ6-84" value="" style="edgeStyle=orthogonalEdgeStyle;shape=flexArrow;rounded=0;orthogonalLoop=1;jettySize=auto;html=1;" parent="1" source="Rp3EMk-Xtz92tAUW0NJ6-79" target="Rp3EMk-Xtz92tAUW0NJ6-83" edge="1">
          <mxGeometry relative="1" as="geometry" />
        </mxCell>
        <mxCell id="Rp3EMk-Xtz92tAUW0NJ6-79" value="&lt;font style=&quot;font-size: 17px;&quot;&gt;运输船满载后前往战船附近的敌方大陆海岸，卸货后返回己方大陆继续运兵&lt;/font&gt;" style="rounded=1;whiteSpace=wrap;html=1;" parent="1" vertex="1">
          <mxGeometry x="712" y="660" width="120" height="130" as="geometry" />
        </mxCell>
        <mxCell id="Rp3EMk-Xtz92tAUW0NJ6-86" value="" style="edgeStyle=orthogonalEdgeStyle;shape=flexArrow;rounded=0;orthogonalLoop=1;jettySize=auto;html=1;entryX=0;entryY=0.5;entryDx=0;entryDy=0;" parent="1" source="Rp3EMk-Xtz92tAUW0NJ6-83" target="Rp3EMk-Xtz92tAUW0NJ6-33" edge="1">
          <mxGeometry relative="1" as="geometry">
            <mxPoint x="952" y="870" as="targetPoint" />
          </mxGeometry>
        </mxCell>
        <mxCell id="Rp3EMk-Xtz92tAUW0NJ6-87" value="&lt;font style=&quot;font-size: 28px;&quot;&gt;是&lt;/font&gt;" style="edgeLabel;html=1;align=center;verticalAlign=middle;resizable=0;points=[];" parent="Rp3EMk-Xtz92tAUW0NJ6-86" vertex="1" connectable="0">
          <mxGeometry x="-0.9434" y="-4" relative="1" as="geometry">
            <mxPoint x="32" y="-324" as="offset" />
          </mxGeometry>
        </mxCell>
        <mxCell id="Rp3EMk-Xtz92tAUW0NJ6-83" value="&lt;font style=&quot;font-size: 17px;&quot;&gt;判断军队&lt;/font&gt;&lt;div&gt;&lt;font style=&quot;font-size: 17px;&quot;&gt;是否登陆&lt;/font&gt;&lt;/div&gt;" style="rhombus;whiteSpace=wrap;html=1;" parent="1" vertex="1">
          <mxGeometry x="692" y="830" width="160" height="80" as="geometry" />
        </mxCell>
        <mxCell id="Rp3EMk-Xtz92tAUW0NJ6-91" value="" style="edgeStyle=orthogonalEdgeStyle;shape=flexArrow;rounded=0;orthogonalLoop=1;jettySize=auto;html=1;" parent="1" source="Rp3EMk-Xtz92tAUW0NJ6-88" target="Rp3EMk-Xtz92tAUW0NJ6-90" edge="1">
          <mxGeometry relative="1" as="geometry" />
        </mxCell>
        <mxCell id="Rp3EMk-Xtz92tAUW0NJ6-88" value="&lt;font style=&quot;font-size: 16px;&quot;&gt;骑兵将敌方军队引至战船海岸，战船与其他陆军协同作战消灭敌军&lt;/font&gt;" style="rounded=1;whiteSpace=wrap;html=1;" parent="1" vertex="1">
          <mxGeometry x="940" y="442.5" width="170" height="97.5" as="geometry" />
        </mxCell>
        <mxCell id="Rp3EMk-Xtz92tAUW0NJ6-93" value="" style="edgeStyle=orthogonalEdgeStyle;shape=flexArrow;rounded=0;orthogonalLoop=1;jettySize=auto;html=1;" parent="1" source="Rp3EMk-Xtz92tAUW0NJ6-90" target="Rp3EMk-Xtz92tAUW0NJ6-92" edge="1">
          <mxGeometry relative="1" as="geometry" />
        </mxCell>
        <mxCell id="Rp3EMk-Xtz92tAUW0NJ6-90" value="&lt;font style=&quot;font-size: 18px;&quot;&gt;运输船运输村民&lt;/font&gt;&lt;div&gt;&lt;font style=&quot;font-size: 18px;&quot;&gt;至敌方大陆进行探索&lt;/font&gt;&lt;/div&gt;" style="rounded=1;whiteSpace=wrap;html=1;" parent="1" vertex="1">
          <mxGeometry x="940" y="578.76" width="170" height="60" as="geometry" />
        </mxCell>
        <mxCell id="Rp3EMk-Xtz92tAUW0NJ6-92" value="&lt;font style=&quot;font-size: 16px;&quot;&gt;发现金矿后在金矿附近&lt;/font&gt;&lt;div&gt;&lt;font style=&quot;font-size: 16px;&quot;&gt;建造仓库并采集金矿&lt;/font&gt;&lt;/div&gt;" style="rounded=1;whiteSpace=wrap;html=1;" parent="1" vertex="1">
          <mxGeometry x="940" y="695" width="170" height="75" as="geometry" />
        </mxCell>
      </root>
    </mxGraphModel>
  </diagram>
</mxfile>
